<svg width="19" height="32" viewBox="0 0 19 32" fill="none" xmlns="http://www.w3.org/2000/svg">
<path fill-rule="evenodd" clip-rule="evenodd" d="M9.50002 2C9.65749 2 9.80851 2.10536 9.91986 2.29289C10.0312 2.48043 10.0938 2.73478 10.0938 3V26.586L13.8296 20.292C13.9411 20.1042 14.0923 19.9987 14.25 19.9987C14.4077 19.9987 14.5589 20.1042 14.6704 20.292C14.7819 20.4798 14.8445 20.7344 14.8445 21C14.8445 21.2656 14.7819 21.5202 14.6704 21.708L9.92039 29.708C9.86524 29.8011 9.79972 29.875 9.72758 29.9254C9.65545 29.9758 9.57812 30.0018 9.50002 30.0018C9.42192 30.0018 9.34459 29.9758 9.27245 29.9254C9.20032 29.875 9.1348 29.8011 9.07964 29.708L4.32964 21.708C4.21815 21.5202 4.15552 21.2656 4.15552 21C4.15552 20.7344 4.21815 20.4798 4.32964 20.292C4.44113 20.1042 4.59235 19.9987 4.75002 19.9987C4.90769 19.9987 5.0589 20.1042 5.17039 20.292L8.90627 26.586V3C8.90627 2.73478 8.96882 2.48043 9.08017 2.29289C9.19152 2.10536 9.34255 2 9.50002 2Z" fill="black"/>
</svg>
