<svg width="1067" height="480" viewBox="0 0 1067 480" fill="none" xmlns="http://www.w3.org/2000/svg">
<g clip-path="url(#clip0_1_222)">
<path d="M318.108 297.963C318.108 262.152 323.196 234.807 333.372 215.927C343.562 197.047 354.538 187.622 366.312 187.665C380.05 187.665 391.519 197.876 400.735 218.283C409.937 238.705 415.127 265.28 416.319 298.022L318.108 297.963ZM457.502 214.502C435.915 191.942 409.632 180.669 378.669 180.683C362.321 180.738 346.141 183.979 331.032 190.225C315.121 196.727 300.5 206.023 287.857 217.672C274.716 229.6 264.017 245.382 255.789 265.033C247.304 285.973 243.103 308.403 243.433 330.996C243.433 378.749 256.371 415.534 282.275 441.352C308.151 467.185 337.951 480.087 371.662 480.072C385.379 480.246 398.988 477.633 411.667 472.392C424.286 467.188 435.705 459.451 445.218 449.658C465.261 429.994 480.197 405.726 488.727 378.967L487.564 378.385C461.645 402.967 435.551 415.272 409.24 415.272C386.112 415.272 365.411 406.312 347.167 388.392C328.924 370.472 319.242 343.04 318.094 306.065H493.349C491.009 267.563 479.016 237.032 457.385 214.502M131.165 288.043C119.732 284.16 108.353 280.116 97.033 275.912C88.6347 272.637 80.3931 268.972 72.335 264.931C62.9297 260.32 56.4609 255.418 52.9284 250.211C49.4036 245.014 47.5567 238.861 47.637 232.582C47.5456 226.302 48.9299 220.089 51.6783 214.443C54.4403 208.785 58.4815 203.825 63.5112 199.956C74.3079 191.217 87.8603 186.608 101.743 186.952C124.13 186.952 143.536 195.331 159.977 212.087C176.404 228.843 194.255 255.142 213.502 290.952H214.679L209.882 196.189C166.708 185.018 133.39 179.432 109.898 179.432C79.6907 179.432 53.8152 187.054 32.2571 202.269C10.6991 217.483 -0.0436097 239.956 -0.0145362 269.672C-0.0145362 291.243 6.27989 308.945 18.8251 322.822C31.3849 336.698 54.5129 349.411 88.2092 360.945C100.784 365.192 109.404 368.174 114.085 369.92C118.78 371.665 125.976 374.356 135.672 378.007C142.722 380.48 149.525 383.563 155.994 387.243C160.661 390.298 165.181 393.571 169.513 397.062C173.947 400.305 177.48 404.567 179.805 409.483C181.594 413.891 182.495 418.603 182.451 423.36C182.451 440.305 177.058 452.742 166.286 460.64C154.868 468.706 141.139 472.841 127.168 472.422C114.036 472.407 101.109 469.17 89.5175 462.996C78.486 457.441 68.3718 450.225 59.5281 441.6C50.1139 431.664 41.8261 420.718 34.8156 408.96C26.1953 395.098 20.0026 384.596 16.2812 377.469C11.2005 367.497 6.40143 357.384 1.88978 347.142H1.30831L8.22782 463.811C61.9558 474.574 99.5915 479.971 121.179 479.971C150.572 479.971 175.953 472.465 197.322 457.454C218.691 442.443 229.361 419.316 229.361 388.116C229.361 361.92 221.221 341.396 204.94 326.574C188.658 311.738 164.077 298.909 131.165 288.043ZM949.252 434.123C948.552 438.66 947.478 443.131 946.039 447.491C942.507 457.891 933.887 466.56 920.164 473.527V474.691H1066.04V473.469C1052.32 466.545 1043.68 457.905 1040.17 447.563C1038.72 443.177 1037.63 438.683 1036.91 434.123C1035.43 424.22 1034.75 414.215 1034.86 404.203V185.803H867.468C867.468 185.803 866.625 129.251 868.66 95.7525C871.059 56.1743 891.047 23.1416 931.241 1.06159V-0.102051C898.286 -0.102051 857.728 3.49068 829.629 22.3998C804.364 39.3743 789.507 67.4034 786.455 97.0034C783.925 121.585 783.765 161.062 783.765 185.803H761.001V193.876H783.765V404.203C783.765 422.676 781.905 437.12 778.169 447.534C774.447 457.949 765.914 466.589 752.584 473.454V474.618H898.533V473.454C884.81 466.531 876.176 457.891 872.658 447.534C869.111 437.178 867.352 422.778 867.352 404.305V193.978C893.082 193.978 930.005 189.658 943.743 216.538C950.938 230.545 951.214 247.171 951.214 262.531V404.305C951.331 414.312 950.633 424.32 949.136 434.225M753.282 378.283C727.406 402.952 701.342 415.272 675.074 415.272C651.931 415.272 631.231 406.312 613.002 388.392C594.743 370.472 585.047 343.04 583.899 306.065V297.963C583.899 262.152 588.987 234.807 599.177 215.927C606.707 201.978 617.057 190.414 632.161 187.825C635.534 187.272 638.964 187.142 642.38 187.447C660.697 189.047 678.068 200.189 690.352 212.8C706.851 229.571 724.717 255.898 743.949 291.782H745.112L740.315 190.894C712.768 193.251 688.331 186.647 661.903 183.491C639.153 180.756 617.959 181.585 596.633 190.225C580.726 196.729 566.106 206.018 553.459 217.658C540.318 229.614 529.619 245.396 521.391 265.033C512.905 285.972 508.703 308.403 509.035 330.996C509.035 378.749 521.987 415.534 547.877 441.367C573.752 467.185 603.553 480.087 637.278 480.058C650.981 480.246 664.58 477.653 677.254 472.436C689.869 467.244 701.288 459.522 710.805 449.745C730.849 430.082 745.785 405.814 754.314 379.054L753.282 378.283Z" fill="black"/>
<path d="M984.475 129.323C1016.94 129.323 1043.25 104.116 1043.25 73.018C1043.25 41.9198 1016.86 16.7271 984.475 16.7271C952.101 16.7271 925.717 41.9343 925.717 73.018C925.717 104.087 952.101 129.323 984.475 129.323Z" fill="black"/>
</g>
<defs>
<clipPath id="clip0_1_222">
<rect width="1067" height="480" fill="white"/>
</clipPath>
</defs>
</svg>
