<svg width="61" height="27" viewBox="0 0 61 27" fill="none" xmlns="http://www.w3.org/2000/svg">
<g clip-path="url(#clip0_1_3)">
<path d="M18.1861 16.7605C18.1861 14.7461 18.477 13.2079 19.0588 12.1459C19.6413 11.0839 20.2688 10.5537 20.9419 10.5562C21.7273 10.5562 22.383 11.1305 22.9099 12.2785C23.436 13.4272 23.7327 14.922 23.8008 16.7637L18.1861 16.7605ZM26.1552 12.0657C24.9211 10.7967 23.4185 10.1626 21.6484 10.1635C20.7138 10.1665 19.7887 10.3488 18.925 10.7002C18.0153 11.0659 17.1795 11.5888 16.4567 12.2441C15.7054 12.915 15.0938 13.8027 14.6234 14.9081C14.1383 16.086 13.8981 17.3477 13.917 18.6185C13.917 21.3046 14.6566 23.3738 16.1376 24.8261C17.6169 26.2792 19.3205 27.0049 21.2478 27.0041C22.032 27.0138 22.81 26.8669 23.5349 26.5721C24.2563 26.2793 24.9091 25.8441 25.453 25.2933C26.5988 24.1872 27.4527 22.8221 27.9403 21.3169L27.8738 21.2842C26.3921 22.6669 24.9003 23.3591 23.3961 23.3591C22.0739 23.3591 20.8904 22.8551 19.8474 21.8471C18.8045 20.8391 18.251 19.296 18.1853 17.2162H28.2046C28.0708 15.0505 27.3852 13.3331 26.1486 12.0657M7.49868 16.2025C6.84503 15.984 6.19452 15.7565 5.54735 15.5201C5.06722 15.3358 4.59605 15.1297 4.13537 14.9024C3.59767 14.643 3.22785 14.3673 3.0259 14.0744C2.82439 13.7821 2.7188 13.436 2.72339 13.0827C2.71817 12.7295 2.79731 12.38 2.95443 12.0625C3.11233 11.7442 3.34337 11.4652 3.63092 11.2475C4.24816 10.756 5.02294 10.4967 5.81661 10.5161C7.09645 10.5161 8.20592 10.9874 9.14585 11.9299C10.0849 12.8725 11.1055 14.3517 12.2058 16.3661H12.2731L11.9989 11.0356C9.53063 10.4073 7.62583 10.0931 6.28284 10.0931C4.55589 10.0931 3.0766 10.5218 1.84413 11.3776C0.611665 12.2335 -0.00249036 13.4975 -0.000828239 15.1691C-0.000828239 16.3825 0.359022 17.3782 1.07623 18.1587C1.79427 18.9393 3.11649 19.6544 5.04289 20.3032C5.76176 20.5421 6.25458 20.7098 6.52218 20.808C6.79062 20.9062 7.20199 21.0575 7.75631 21.2629C8.15938 21.402 8.54831 21.5755 8.91814 21.7825C9.18491 21.9543 9.44337 22.1384 9.69102 22.3347C9.9445 22.5172 10.1464 22.7569 10.2794 23.0335C10.3816 23.2814 10.4332 23.5465 10.4307 23.814C10.4307 24.7672 10.1223 25.4667 9.50653 25.911C8.85375 26.3647 8.06886 26.5973 7.27014 26.5737C6.51942 26.5729 5.78036 26.3909 5.11769 26.0435C4.48702 25.7311 3.90879 25.3252 3.4032 24.84C2.865 24.2811 2.39119 23.6654 1.9904 23.004C1.49758 22.2243 1.14355 21.6335 0.930793 21.2326C0.64033 20.6717 0.36597 20.1029 0.108041 19.5267H0.0747985L0.470384 26.0894C3.54199 26.6948 5.69361 26.9984 6.92774 26.9984C8.60815 26.9984 10.0592 26.5762 11.2808 25.7318C12.5025 24.8875 13.1125 23.5865 13.1125 21.8315C13.1125 20.358 12.6471 19.2035 11.7163 18.3698C10.7855 17.5353 9.38021 16.8136 7.49868 16.2025ZM54.2684 24.4195C54.2284 24.6747 54.1669 24.9262 54.0847 25.1714C53.8828 25.7564 53.39 26.244 52.6054 26.6359V26.7014H60.9452V26.6326C60.1606 26.2432 59.667 25.7572 59.4659 25.1755C59.3834 24.9287 59.3212 24.6759 59.2797 24.4195C59.1954 23.8624 59.1562 23.2996 59.1625 22.7365V10.4515H49.5928C49.5928 10.4515 49.5446 7.27037 49.661 5.38609C49.7981 3.15982 50.9408 1.30173 53.2387 0.0597287V-0.00572586C51.3547 -0.00572586 49.036 0.196365 47.4296 1.26C45.9852 2.21482 45.1358 3.79146 44.9613 5.45646C44.8167 6.83918 44.8076 9.05973 44.8076 10.4515H43.5061V10.9055H44.8076V22.7365C44.8076 23.7755 44.7012 24.588 44.4876 25.1738C44.2749 25.7596 43.787 26.2456 43.0249 26.6318V26.6973H51.3688V26.6318C50.5843 26.2424 50.0906 25.7564 49.8895 25.1738C49.6867 24.5913 49.5862 23.7813 49.5862 22.7422V10.9113C51.0572 10.9113 53.1681 10.6683 53.9534 12.1803C54.3648 12.9682 54.3806 13.9034 54.3806 14.7674V22.7422C54.3872 23.3051 54.3473 23.868 54.2617 24.4252M43.0648 21.2785C41.5855 22.6661 40.0954 23.3591 38.5937 23.3591C37.2707 23.3591 36.0872 22.8551 35.0451 21.8471C34.0013 20.8391 33.4469 19.296 33.3813 17.2162V16.7605C33.3813 14.7461 33.6722 13.2079 34.2547 12.1459C34.6852 11.3613 35.2769 10.7108 36.1404 10.5652C36.3332 10.5341 36.5294 10.5267 36.7247 10.5439C37.7718 10.6339 38.7649 11.2606 39.4672 11.97C40.4104 12.9134 41.4318 14.3943 42.5313 16.4127H42.5978L42.3235 10.7378C40.7487 10.8704 39.3517 10.4989 37.8408 10.3214C36.5402 10.1675 35.3285 10.2142 34.1093 10.7002C33.1999 11.066 32.3641 11.5886 31.6411 12.2433C30.8898 12.9158 30.2781 13.8035 29.8077 14.9081C29.3226 16.086 29.0824 17.3477 29.1013 18.6185C29.1013 21.3046 29.8418 23.3738 31.3219 24.8269C32.8012 26.2792 34.5049 27.0049 36.433 27.0033C37.2164 27.0139 37.9938 26.868 38.7184 26.5745C39.4396 26.2825 40.0924 25.8481 40.6365 25.2982C41.7824 24.1921 42.6363 22.827 43.1238 21.3218L43.0648 21.2785Z" fill="black"/>
<path d="M56.2821 7.27446C58.1378 7.27446 59.642 5.85655 59.642 4.10727C59.642 2.358 58.1337 0.94091 56.2821 0.94091C54.4313 0.94091 52.9229 2.35882 52.9229 4.10727C52.9229 5.85491 54.4313 7.27446 56.2821 7.27446Z" fill="black"/>
</g>
<defs>
<clipPath id="clip0_1_3">
<rect width="61" height="27" fill="white"/>
</clipPath>
</defs>
</svg>
